<?xml version="1.0" encoding="UTF-8"?>
<svg xmlns="http://www.w3.org/2000/svg" xmlns:xlink="http://www.w3.org/1999/xlink" viewBox="0 0 24 24" width="25px" height="25px">
<g id="surface150347200">
<rect x="0" y="0" width="24" height="24" style="fill:rgb(9.019608%,12.941177%,27.450982%);fill-opacity:1;stroke:none;"/>
<path style=" stroke:none;fill-rule:nonzero;fill:rgb(100%,100%,100%);fill-opacity:1;" d="M 21.632812 4.03125 C 20.820312 4.414062 19.433594 5.136719 18.734375 5.277344 C 18.707031 5.28125 18.6875 5.292969 18.660156 5.300781 C 17.847656 4.496094 16.734375 4 15.5 4 C 13.015625 4 11 6.015625 11 8.5 C 11 8.632812 10.988281 8.871094 11 9 C 7.78125 9 5.433594 7.320312 3.671875 5.164062 C 3.4375 4.871094 3.1875 5.023438 3.136719 5.230469 C 3.019531 5.695312 2.980469 6.476562 2.980469 7.03125 C 2.980469 8.433594 4.074219 9.808594 5.777344 10.660156 C 5.464844 10.742188 5.117188 10.800781 4.757812 10.800781 C 4.335938 10.800781 3.847656 10.6875 3.421875 10.464844 C 3.261719 10.382812 2.921875 10.40625 3.023438 10.808594 C 3.425781 12.429688 5.273438 13.566406 6.925781 13.894531 C 6.550781 14.117188 5.75 14.070312 5.382812 14.070312 C 5.246094 14.070312 4.773438 14.039062 4.46875 14.003906 C 4.1875 13.96875 3.761719 14.039062 4.117188 14.585938 C 4.890625 15.75 6.632812 16.484375 8.136719 16.511719 C 6.753906 17.597656 4.492188 17.992188 2.328125 17.992188 C 1.890625 17.980469 1.910156 18.480469 2.265625 18.664062 C 3.863281 19.503906 6.476562 20 8.347656 20 C 15.777344 20 20 14.335938 20 9 C 20 8.914062 19.996094 8.734375 19.996094 8.550781 C 19.996094 8.535156 20 8.515625 20 8.5 C 20 8.472656 19.992188 8.445312 19.992188 8.417969 C 19.988281 8.28125 19.984375 8.15625 19.984375 8.089844 C 20.570312 7.664062 21.472656 6.925781 21.929688 6.363281 C 22.085938 6.171875 21.960938 5.9375 21.75 6.011719 C 21.207031 6.199219 20.265625 6.566406 19.679688 6.636719 C 20.855469 5.855469 21.4375 5.179688 21.9375 4.425781 C 22.109375 4.167969 21.894531 3.90625 21.632812 4.03125 Z M 21.632812 4.03125 "/>
</g>
</svg>
